# 3ds Max Wavefront OBJ Exporter v0.97b - (c)2007 guruware
# File Created: 11.11.2014 11:32:26

mtllib prop_FinalWall.mtl

#
# object Box001
#

v  -0.2018 78.7402 -7.9510
v  -6.1073 78.7402 -7.9510
v  -6.1073 78.7402 31.4191
v  -0.2018 78.7402 31.4191
v  -6.1073 0.0000 31.4191
v  -0.2018 0.0000 31.4191
v  -0.2018 0.0000 -7.9510
v  -6.1073 0.0000 -7.9510
# 8 vertices

vn 0.0000 1.0000 -0.0000
vn 0.0000 0.0000 1.0000
vn 1.0000 0.0000 -0.0000
vn 0.0000 0.0000 -1.0000
vn -1.0000 0.0000 -0.0000
# 5 vertex normals

vt 1.0000 1.0000 0.0000
vt 0.0000 1.0000 0.0000
vt 0.0000 0.0000 0.0000
vt 1.0000 0.0000 0.0000
# 4 texture coords

g Box001
usemtl wire_228214153
s 4
f 1/1/1 2/2/1 3/3/1 4/4/1 
s 8
f 4/1/2 3/2/2 5/3/2 6/4/2 
s 16
f 1/1/3 4/2/3 6/3/3 7/4/3 
s 32
f 2/1/4 1/2/4 7/3/4 8/4/4 
s 64
f 3/1/5 2/2/5 8/3/5 5/4/5 
# 5 polygons

